<svg width="3250" height="1728" viewBox="0 0 3250 1728" xmlns="http://www.w3.org/2000/svg" xmlns:xlink="http://www.w3.org/1999/xlink"><defs><linearGradient x1="-5.586%" y1="18.508%" x2="109.349%" y2="167.859%" id="c"><stop stop-color="#DB7390" offset="0%"/><stop stop-color="#BA27B3" offset="22.882%"/><stop stop-color="#4711AC" offset="41.808%"/><stop stop-color="#3C1A68" offset="65.803%"/><stop stop-color="#1F136F" offset="100%"/></linearGradient><linearGradient x1="-5.586%" y1="18.542%" x2="109.349%" y2="167.731%" id="d"><stop stop-color="#DB7390" offset="0%"/><stop stop-color="#BA27B3" offset="22.882%"/><stop stop-color="#4711AC" offset="41.808%"/><stop stop-color="#3C1A68" offset="65.803%"/><stop stop-color="#1F136F" offset="100%"/></linearGradient><linearGradient x1="-5.586%" y1="18.535%" x2="109.349%" y2="167.757%" id="e"><stop stop-color="#DB7390" offset="0%"/><stop stop-color="#BA27B3" offset="22.882%"/><stop stop-color="#4711AC" offset="41.808%"/><stop stop-color="#3C1A68" offset="65.803%"/><stop stop-color="#1F136F" offset="100%"/></linearGradient><linearGradient x1="-5.586%" y1="18.53%" x2="109.349%" y2="167.776%" id="f"><stop stop-color="#DB7390" offset="0%"/><stop stop-color="#BA27B3" offset="22.882%"/><stop stop-color="#4711AC" offset="41.808%"/><stop stop-color="#3C1A68" offset="65.803%"/><stop stop-color="#1F136F" offset="100%"/></linearGradient><linearGradient x1="-5.586%" y1="18.53%" x2="109.349%" y2="167.776%" id="g"><stop stop-color="#DB7390" offset="0%"/><stop stop-color="#BA27B3" offset="22.882%"/><stop stop-color="#4711AC" offset="41.808%"/><stop stop-color="#3C1A68" offset="65.803%"/><stop stop-color="#1F136F" offset="100%"/></linearGradient><linearGradient x1="-5.586%" y1="18.501%" x2="109.349%" y2="167.887%" id="h"><stop stop-color="#DB7390" offset="0%"/><stop stop-color="#BA27B3" offset="22.882%"/><stop stop-color="#4711AC" offset="41.808%"/><stop stop-color="#3C1A68" offset="65.803%"/><stop stop-color="#1F136F" offset="100%"/></linearGradient><linearGradient x1="-5.586%" y1="18.501%" x2="109.349%" y2="167.886%" id="i"><stop stop-color="#DB7390" offset="0%"/><stop stop-color="#BA27B3" offset="22.882%"/><stop stop-color="#4711AC" offset="41.808%"/><stop stop-color="#3C1A68" offset="65.803%"/><stop stop-color="#1F136F" offset="100%"/></linearGradient><linearGradient x1="-5.586%" y1="18.539%" x2="109.349%" y2="167.742%" id="j"><stop stop-color="#DB7390" offset="0%"/><stop stop-color="#BA27B3" offset="22.882%"/><stop stop-color="#4711AC" offset="41.808%"/><stop stop-color="#3C1A68" offset="65.803%"/><stop stop-color="#1F136F" offset="100%"/></linearGradient><linearGradient x1="-5.586%" y1="18.599%" x2="109.349%" y2="167.52%" id="k"><stop stop-color="#DB7390" offset="0%"/><stop stop-color="#BA27B3" offset="22.882%"/><stop stop-color="#4711AC" offset="41.808%"/><stop stop-color="#3C1A68" offset="65.803%"/><stop stop-color="#1F136F" offset="100%"/></linearGradient><rect id="a" x="0" y="0" width="4186" height="1727.55"/></defs><g transform="translate(-369)" fill="none" fill-rule="evenodd"><mask id="b" fill="#fff"><use xlink:href="#a"/></mask><g opacity=".4" mask="url(#b)"><g transform="translate(-453.055 -1873.455)"><path d="M562.748341,3413.91805 C1090.40335,3664.16687 1632.2806,3789.29128 2188.3801,3789.29128 C2744.4796,3789.29128 3285.93568,3664.16687 3812.74834,3413.91805 C3765.69957,2915.72649 3617.46602,2418.11015 3368.0477,1921.06901 C3118.62938,1424.02788 2725.40685,988.10197 2188.3801,613.291281 C1637.15308,988.10197 1238.74864,1424.02788 993.16679,1921.06901 C747.584938,2418.11015 604.112121,2915.72649 562.748341,3413.91805 Z" fill="url(#c)" opacity=".52" transform="rotate(-120 2187.748 2201.291)"/><path d="M906.245627,3077.6781 C1322.62875,3275.04689 1750.23493,3373.73128 2189.06416,3373.73128 C2627.8934,3373.73128 3055.16722,3275.04689 3470.88563,3077.6781 C3433.7585,2684.75931 3316.78445,2292.29419 3119.96346,1900.28273 C2923.14248,1508.27127 2612.84271,1164.46079 2189.06416,868.851281 C1754.07989,1164.46079 1439.69098,1508.27127 1245.89743,1900.28273 C1052.10388,2292.29419 938.886613,2684.75931 906.245627,3077.6781 Z" fill="url(#d)" opacity=".52" transform="rotate(-130.909 2188.566 2121.291)"/><path d="M1172.72563,2804.42472 C1470.10874,2945.40243 1775.50743,3015.89128 2088.92168,3015.89128 C2402.33594,3015.89128 2707.49725,2945.40243 3004.40563,2804.42472 C2977.88923,2523.76845 2894.34572,2243.43622 2753.77509,1963.42803 C2613.20445,1683.41985 2391.58665,1437.84093 2088.92168,1226.69128 C1778.25353,1437.84093 1553.71524,1683.41985 1415.30682,1963.42803 C1276.8984,2243.43622 1196.038,2523.76845 1172.72563,2804.42472 Z" fill="url(#e)" opacity=".52" transform="rotate(-164 2088.566 2121.291)"/><path d="M1439.44563,2609.24374 C1651.84544,2709.9421 1869.97021,2760.29128 2093.81993,2760.29128 C2317.66966,2760.29128 2535.62489,2709.9421 2747.68563,2609.24374 C2728.74683,2408.77497 2669.07758,2208.53766 2568.67789,2008.53182 C2468.27819,1808.52597 2309.9922,1633.11246 2093.81993,1482.29128 C1871.93155,1633.11246 1711.55967,1808.52597 1612.70428,2008.53182 C1513.8489,2208.53766 1456.09601,2408.77497 1439.44563,2609.24374 Z" fill="url(#f)" opacity=".52" transform="rotate(164 2093.566 2121.291)"/><path d="M1626.28563,2469.86802 C1778.01648,2541.80353 1933.83703,2577.77128 2093.74729,2577.77128 C2253.65755,2577.77128 2409.357,2541.80353 2560.84563,2469.86802 C2547.31643,2326.65991 2504.69085,2183.61715 2432.96888,2040.73973 C2361.24692,1897.86232 2248.17305,1772.55283 2093.74729,1664.81128 C1935.23815,1772.55283 1820.67419,1897.86232 1750.05543,2040.73973 C1679.43667,2183.61715 1638.18007,2326.65991 1626.28563,2469.86802 Z" fill="url(#g)" opacity=".52" transform="rotate(131 2093.566 2121.291)"/><path d="M1759.84563,2370.35321 C1868.20811,2421.75192 1979.49135,2447.45128 2093.69537,2447.45128 C2207.89938,2447.45128 2319.09614,2421.75192 2427.28563,2370.35321 C2417.6234,2268.02943 2387.18125,2165.8238 2335.95917,2063.73631 C2284.73709,1961.64882 2203.98249,1872.11381 2093.69537,1795.13128 C1980.492,1872.11381 1898.67321,1961.64882 1848.23901,2063.73631 C1797.80481,2165.8238 1768.34035,2268.02943 1759.84563,2370.35321 Z" fill="url(#h)" opacity=".52" transform="rotate(98.182 2093.566 2121.291)"/><path d="M1855.24563,2299.15339 C1932.6307,2335.85865 2012.10158,2354.21128 2093.65828,2354.21128 C2175.21498,2354.21128 2254.62409,2335.85865 2331.88563,2299.15339 C2324.98553,2226.08111 2303.24582,2153.0932 2266.66652,2080.18966 C2230.08721,2007.28612 2172.4178,1943.34666 2093.65828,1888.37128 C2012.81617,1943.34666 1954.38679,2007.28612 1918.37013,2080.18966 C1882.35348,2153.0932 1861.31198,2226.08111 1855.24563,2299.15339 Z" fill="url(#i)" opacity=".52" transform="rotate(65.455 2093.566 2121.291)"/><path d="M1923.28563,2248.29637 C1978.57738,2274.50631 2035.35944,2287.61128 2093.63183,2287.61128 C2151.90421,2287.61128 2208.64214,2274.50631 2263.84563,2248.29637 C2258.9155,2196.11802 2243.38244,2143.99992 2217.24647,2091.94206 C2191.1105,2039.8842 2149.90562,1994.22727 2093.63183,1954.97128 C2035.87002,1994.22727 1994.12214,2039.8842 1968.38818,2091.94206 C1942.65423,2143.99992 1927.62004,2196.11802 1923.28563,2248.29637 Z" fill="url(#j)" opacity=".52" transform="rotate(32.727 2093.566 2121.291)"/><path d="M1971.82245,2212.0092 C2011.35377,2230.73059 2051.95061,2240.09128 2093.61296,2240.09128 C2135.27531,2240.09128 2175.84059,2230.73059 2215.3088,2212.0092 C2211.78396,2174.73895 2200.67847,2137.51174 2181.99233,2100.32755 C2163.30619,2063.14336 2133.8464,2030.53127 2093.61296,2002.49128 C2052.31565,2030.53127 2022.46764,2063.14336 2004.06892,2100.32755 C1985.6702,2137.51174 1974.92138,2174.73895 1971.82245,2212.0092 Z" fill="url(#k)" opacity=".481"/></g></g></g></svg>