<?xml version="1.0" encoding="UTF-8"?>
<svg width="2000px" height="1600px" viewBox="0 0 2000 1600" version="1.1" xmlns="http://www.w3.org/2000/svg" xmlns:xlink="http://www.w3.org/1999/xlink">
    <title>AssetsWebsite/animation/3way_merge</title>
    <defs>
        <linearGradient x1="42.8063857%" y1="99.8728474%" x2="50%" y2="0.127152637%" id="linearGradient-1">
            <stop stop-color="#00CAF4" offset="0%"></stop>
            <stop stop-color="#00ADEC" offset="31.7808268%"></stop>
            <stop stop-color="#9958E9" offset="63.5616536%"></stop>
            <stop stop-color="#F000DE" offset="100%"></stop>
        </linearGradient>
        <linearGradient x1="67.3464995%" y1="95.8688297%" x2="50%" y2="0.127152637%" id="linearGradient-2">
            <stop stop-color="#00CAF4" offset="0%"></stop>
            <stop stop-color="#00ADEC" offset="31.7808268%"></stop>
            <stop stop-color="#9958E9" offset="63.5616536%"></stop>
            <stop stop-color="#F000DE" offset="100%"></stop>
        </linearGradient>
        <linearGradient x1="50%" y1="100%" x2="50%" y2="3.061617e-15%" id="linearGradient-3">
            <stop stop-color="#00CAF4" offset="0%"></stop>
            <stop stop-color="#00ADEC" offset="31.7808268%"></stop>
            <stop stop-color="#9958E9" offset="63.5616536%"></stop>
            <stop stop-color="#F000DE" offset="100%"></stop>
        </linearGradient>
    </defs>
    <g id="AssetsWebsite/animation/3way_merge" stroke="none" stroke-width="1" fill="none" fill-rule="evenodd" opacity="0.300000012">
        <g id="Group-2" transform="translate(-600.000000, -486.009990)">
            <g id="Path_looper" transform="translate(1400.983100, 1402.556698) rotate(216.000000) translate(-1400.983100, -1402.556698) translate(400.983100, 395.443805)">
                <path d="M980.705449,113.517113 C857.443925,200.901294 743.783723,302.407925 641.231885,416.457041 C445.279849,634.334121 296.495824,892.585366 206.03679,1174.41454 C156.08561,1330.06533 124.218945,1491.86583 111.421234,1657.27594 C245.025448,1720.80266 385.241204,1769.29541 529.917322,1801.68468 C668.686803,1832.79783 829.065335,1849.75206 980.693296,1849.75206 C1135.28673,1849.75206 1276.04939,1832.2023 1431.46927,1794.90299 C1576.46138,1760.0587 1716.64068,1709.09877 1849.91674,1643.10488 C1836.42628,1482.5562 1804.94853,1325.44697 1756.39501,1174.22008 C1665.97244,892.378755 1517.18841,634.115357 1321.17561,416.201816 C1219.64467,303.355903 1105.19448,201.642662 980.74191,113.468499 L980.705449,113.517113 Z" id="Path-Copy-15" fill="url(#linearGradient-1)" opacity="0.400000006" transform="translate(980.668989, 981.610278) rotate(98.000000) translate(-980.668989, -981.610278) "></path>
                <path d="M1104.1069,415.408763 C999.298447,489.710949 902.653934,576.02136 815.45479,672.996564 C648.83808,858.255992 522.328016,1077.8453 445.411302,1317.48277 C402.938147,1449.8316 375.842135,1587.40949 364.960326,1728.0566 C478.563098,1782.07295 597.787621,1823.30601 720.804759,1850.84639 C838.799524,1877.30169 975.168321,1891.71776 1104.09656,1891.71776 C1235.54633,1891.71776 1355.23589,1876.79532 1487.38837,1845.07996 C1610.6742,1815.4521 1729.86772,1772.12121 1843.19147,1716.00704 C1831.72062,1579.49357 1804.95529,1445.90464 1763.67056,1317.31743 C1686.78485,1077.66962 1560.27478,858.069978 1393.6064,672.779548 C1307.27532,576.82742 1209.9591,490.341329 1104.1379,415.367426 L1104.1069,415.408763 Z" id="Path-Copy-13" fill="url(#linearGradient-2)" opacity="0.400000006" transform="translate(1104.075897, 1153.542594) rotate(86.000000) translate(-1104.075897, -1153.542594) "></path>
                <path d="M1246.98955,645.984169 C1159.71448,707.856363 1079.2376,779.72793 1006.62597,860.480179 C867.882525,1014.74761 762.536294,1197.60189 698.486956,1397.15047 C663.119123,1507.3587 640.555995,1621.92122 631.494601,1739.03952 C726.092798,1784.01949 825.372284,1818.35468 927.809919,1841.28784 C1026.06537,1863.31744 1139.62107,1875.32185 1246.98095,1875.32185 C1356.44052,1875.32185 1456.10724,1862.89578 1566.15197,1836.48607 C1668.81335,1811.81465 1768.06702,1775.73257 1862.43287,1729.00573 C1852.88097,1615.32955 1830.59321,1504.08868 1796.21499,1397.01278 C1732.19147,1197.4556 1626.84524,1014.59271 1488.05877,860.299467 C1416.16999,780.399144 1335.13376,708.381287 1247.01537,645.949748 L1246.98955,645.984169 Z" id="Path-Copy-12" fill="url(#linearGradient-3)" opacity="0.400000006" transform="translate(1246.963735, 1260.635798) rotate(-285.000000) translate(-1246.963735, -1260.635798) "></path>
            </g>
        </g>
    </g>
</svg>